<svg width="238" height="40" viewBox="0 0 238 40" fill="none" xmlns="http://www.w3.org/2000/svg">
<path d="M13.6684 0C18.9031 0 22.7338 1.612 25.1604 4.836C27.6218 8.02534 28.8524 12.8613 28.8524 19.344C28.8524 25.896 27.6218 30.8187 25.1604 34.112C22.6991 37.3707 18.8684 39 13.6684 39H0.252441L0.772442 31.2V7.54L0.252441 0H13.6684ZM13.6684 31.824C15.5058 31.824 16.9618 31.4253 18.0364 30.628C19.1111 29.796 19.8738 28.4787 20.3244 26.676C20.8098 24.8733 21.0524 22.4293 21.0524 19.344C21.0524 16.12 20.8098 13.6413 20.3244 11.908C19.8738 10.1747 19.1111 8.96133 18.0364 8.268C16.9964 7.54 15.5404 7.176 13.6684 7.176H8.26044V31.824H13.6684Z" fill="white"/>
<path d="M32.0472 30.316C32.0472 28.34 32.5152 26.5547 33.4512 24.96C34.4219 23.3307 35.6872 22.048 37.2472 21.112C38.8419 20.176 40.5579 19.708 42.3952 19.708C45.5845 19.708 48.0632 20.176 49.8312 21.112V18.356C49.8312 17.0387 49.2939 16.016 48.2192 15.288C47.1792 14.56 45.7059 14.196 43.7992 14.196C41.7539 14.196 39.9339 14.5253 38.3392 15.184C36.7792 15.8427 35.5832 16.8307 34.7512 18.148L34.1792 18.044L35.1152 10.348C36.2939 9.308 37.7499 8.51067 39.4832 7.956C41.2512 7.36667 43.0365 7.072 44.8392 7.072C48.5832 7.072 51.5645 7.956 53.7832 9.724C56.0019 11.492 57.1112 13.9013 57.1112 16.952V31.252L57.6312 39H49.9872L49.8312 36.14C49.1379 37.2493 48.0459 38.1507 46.5552 38.844C45.0992 39.5027 43.4872 39.832 41.7192 39.832C38.7725 39.832 36.4152 38.9827 34.6472 37.284C32.9139 35.5853 32.0472 33.2627 32.0472 30.316ZM39.5352 29.848C39.5352 31.0267 39.8299 31.9453 40.4192 32.604C41.0432 33.228 41.9445 33.54 43.1232 33.54C44.4059 33.54 45.6192 33.2973 46.7632 32.812C47.9419 32.292 48.9645 31.564 49.8312 30.628V27.092C47.8899 26.156 45.7059 25.688 43.2792 25.688C41.9965 25.688 41.0432 26.0347 40.4192 26.728C39.8299 27.4213 39.5352 28.4613 39.5352 29.848Z" fill="white"/>
<path d="M61.4398 9.88L64.7678 7.8L66.3278 1.3H72.0478V7.8H80.2638V14.82H72.0478V28.548C72.0478 29.7613 72.3078 30.6973 72.8278 31.356C73.3824 32.0147 74.1798 32.344 75.2198 32.344C76.3291 32.344 77.3344 32.136 78.2358 31.72C79.1718 31.304 79.9344 30.732 80.5238 30.004L81.6158 30.524L80.0038 36.92C78.5825 37.9947 77.4038 38.7053 76.4678 39.052C75.5664 39.4333 74.4571 39.624 73.1398 39.624C71.1291 39.624 69.5171 39.2253 68.3038 38.428C67.0904 37.596 66.1891 36.2787 65.5998 34.476C65.0451 32.6387 64.7678 30.1427 64.7678 26.988V14.82H61.4398V9.88Z" fill="white"/>
<path d="M97.4969 39.624C92.8516 39.624 89.4542 38.2547 87.3049 35.516C85.1556 32.7773 84.0809 28.7213 84.0809 23.348C84.0809 18.1133 85.2076 14.0747 87.4609 11.232C89.7489 8.38933 93.0942 6.968 97.4969 6.968C101.83 6.968 105.037 8.06 107.117 10.244C109.232 12.428 110.462 15.8773 110.809 20.592L109.405 26.052H91.6729C91.8116 27.7507 92.1409 29.0507 92.6609 29.952C93.1809 30.8533 93.9262 31.4773 94.8969 31.824C95.9022 32.1707 97.2889 32.344 99.0569 32.344C101.38 32.344 103.442 32.136 105.245 31.72C107.082 31.304 108.33 30.7667 108.989 30.108L109.873 30.576L108.261 36.92C106.944 37.9253 105.453 38.6187 103.789 39C102.125 39.416 100.028 39.624 97.4969 39.624ZM103.425 20.592C103.425 18.408 102.957 16.796 102.021 15.756C101.085 14.6813 99.6462 14.144 97.7049 14.144C95.6596 14.144 94.1689 14.6293 93.2329 15.6C92.3316 16.536 91.7942 18.2 91.6209 20.592H103.425Z" fill="white"/>
<path d="M146.119 31.2V6.136L138.631 39H129.479L121.939 5.72V31.2L122.459 39H114.919L115.439 31.2V7.54L115.127 0H128.179L134.731 30.628L141.283 0H154.023L153.711 7.54V31.2L154.283 39H145.599L146.119 31.2Z" fill="white"/>
<path d="M158.596 30.316C158.596 28.34 159.064 26.5547 160 24.96C160.971 23.3307 162.236 22.048 163.796 21.112C165.391 20.176 167.107 19.708 168.944 19.708C172.133 19.708 174.612 20.176 176.38 21.112V18.356C176.38 17.0387 175.843 16.016 174.768 15.288C173.728 14.56 172.255 14.196 170.348 14.196C168.303 14.196 166.483 14.5253 164.888 15.184C163.328 15.8427 162.132 16.8307 161.3 18.148L160.728 18.044L161.664 10.348C162.843 9.308 164.299 8.51067 166.032 7.956C167.8 7.36667 169.585 7.072 171.388 7.072C175.132 7.072 178.113 7.956 180.332 9.724C182.551 11.492 183.66 13.9013 183.66 16.952V31.252L184.18 39H176.536L176.38 36.14C175.687 37.2493 174.595 38.1507 173.104 38.844C171.648 39.5027 170.036 39.832 168.268 39.832C165.321 39.832 162.964 38.9827 161.196 37.284C159.463 35.5853 158.596 33.2627 158.596 30.316ZM166.084 29.848C166.084 31.0267 166.379 31.9453 166.968 32.604C167.592 33.228 168.493 33.54 169.672 33.54C170.955 33.54 172.168 33.2973 173.312 32.812C174.491 32.292 175.513 31.564 176.38 30.628V27.092C174.439 26.156 172.255 25.688 169.828 25.688C168.545 25.688 167.592 26.0347 166.968 26.728C166.379 27.4213 166.084 28.4613 166.084 29.848Z" fill="white"/>
<path d="M187.989 9.88L191.317 7.8L192.877 1.3H198.597V7.8H206.813V14.82H198.597V28.548C198.597 29.7613 198.857 30.6973 199.377 31.356C199.931 32.0147 200.729 32.344 201.769 32.344C202.878 32.344 203.883 32.136 204.785 31.72C205.721 31.304 206.483 30.732 207.073 30.004L208.165 30.524L206.553 36.92C205.131 37.9947 203.953 38.7053 203.017 39.052C202.115 39.4333 201.006 39.624 199.689 39.624C197.678 39.624 196.066 39.2253 194.853 38.428C193.639 37.596 192.738 36.2787 192.149 34.476C191.594 32.6387 191.317 30.1427 191.317 26.988V14.82H187.989V9.88Z" fill="white"/>
<path d="M224.046 39.624C219.4 39.624 216.003 38.2547 213.854 35.516C211.704 32.7773 210.63 28.7213 210.63 23.348C210.63 18.1133 211.756 14.0747 214.01 11.232C216.298 8.38933 219.643 6.968 224.046 6.968C228.379 6.968 231.586 8.06 233.666 10.244C235.78 12.428 237.011 15.8773 237.358 20.592L235.954 26.052H218.222C218.36 27.7507 218.69 29.0507 219.21 29.952C219.73 30.8533 220.475 31.4773 221.446 31.824C222.451 32.1707 223.838 32.344 225.606 32.344C227.928 32.344 229.991 32.136 231.794 31.72C233.631 31.304 234.879 30.7667 235.538 30.108L236.422 30.576L234.81 36.92C233.492 37.9253 232.002 38.6187 230.338 39C228.674 39.416 226.576 39.624 224.046 39.624ZM229.974 20.592C229.974 18.408 229.506 16.796 228.57 15.756C227.634 14.6813 226.195 14.144 224.254 14.144C222.208 14.144 220.718 14.6293 219.782 15.6C218.88 16.536 218.343 18.2 218.17 20.592H229.974Z" fill="white"/>
</svg>
