<svg width="235" height="59" viewBox="0 0 235 59" fill="none" xmlns="http://www.w3.org/2000/svg">
<path d="M14.8225 8.50003C19.0171 8.50003 22.3278 9.69603 24.7545 12.088C27.2158 14.4454 28.4465 17.8254 28.4465 22.228C28.4465 25.1054 27.8745 27.584 26.7305 29.664C25.6211 31.744 24.0265 33.3387 21.9465 34.448C19.9011 35.5227 17.5091 36.06 14.7705 36.06H8.53046V39.7L9.05046 47.5H0.522461L1.04246 39.7V16.04L0.522461 8.50003H14.8225ZM12.6385 28.884C14.7185 28.884 16.3305 28.6934 17.4745 28.312C18.6185 27.896 19.4331 27.22 19.9185 26.284C20.4038 25.3134 20.6465 23.9614 20.6465 22.228C20.6465 20.564 20.4038 19.264 19.9185 18.328C19.4331 17.392 18.6185 16.716 17.4745 16.3C16.3305 15.884 14.7531 15.676 12.7425 15.676H8.53046V28.884H12.6385Z" fill="#1D1D1D"/>
<path d="M32.4578 39.7V13.44L31.9378 5.90004H40.2578L39.7378 13.44V39.7L40.2578 47.5H31.9378L32.4578 39.7Z" fill="#1D1D1D"/>
<path d="M44.2894 38.816C44.2894 36.84 44.7574 35.0547 45.6934 33.46C46.6641 31.8307 47.9294 30.548 49.4894 29.612C51.0841 28.676 52.8001 28.208 54.6374 28.208C57.8267 28.208 60.3054 28.676 62.0734 29.612V26.856C62.0734 25.5387 61.5361 24.516 60.4614 23.788C59.4214 23.06 57.9481 22.696 56.0414 22.696C53.9961 22.696 52.1761 23.0254 50.5814 23.684C49.0214 24.3427 47.8254 25.3307 46.9934 26.648L46.4214 26.544L47.3574 18.848C48.5361 17.808 49.9921 17.0107 51.7254 16.456C53.4934 15.8667 55.2787 15.572 57.0814 15.572C60.8254 15.572 63.8067 16.456 66.0254 18.224C68.2441 19.992 69.3534 22.4014 69.3534 25.452V39.752L69.8734 47.5H62.2294L62.0734 44.64C61.3801 45.7494 60.2881 46.6507 58.7974 47.344C57.3414 48.0027 55.7294 48.332 53.9614 48.332C51.0147 48.332 48.6574 47.4827 46.8894 45.784C45.1561 44.0854 44.2894 41.7627 44.2894 38.816ZM51.7774 38.348C51.7774 39.5267 52.0721 40.4454 52.6614 41.104C53.2854 41.728 54.1867 42.04 55.3654 42.04C56.6481 42.04 57.8614 41.7974 59.0054 41.312C60.1841 40.792 61.2067 40.064 62.0734 39.128V35.592C60.1321 34.656 57.9481 34.188 55.5214 34.188C54.2387 34.188 53.2854 34.5347 52.6614 35.228C52.0721 35.9214 51.7774 36.9614 51.7774 38.348Z" fill="#1D1D1D"/>
<path d="M100.41 16.3L97.81 23.84L91.726 47.5C89.75 52.492 86.942 56.236 83.302 58.732L77.114 52.856L77.53 52.336C78.6047 52.0587 79.818 51.4 81.17 50.36C82.5567 49.3547 83.458 48.4014 83.874 47.5H80.546L74.514 23.84L71.862 16.3H81.014L82.158 23.84L86.11 42.092L90.062 23.84L91.258 16.3H100.41Z" fill="#1D1D1D"/>
<path d="M103.856 0C105.52 0 106.837 0.485333 107.808 1.456C108.779 2.392 109.264 3.64 109.264 5.2C109.264 7.14133 108.657 9.01333 107.444 10.816C106.231 12.6187 104.705 13.8493 102.868 14.508L101.1 12.584L101.204 12.324C102.625 11.5267 103.353 10.4693 103.388 9.152C101.967 9.08267 100.788 8.632 99.852 7.8C98.9507 6.93333 98.5 5.876 98.5 4.628C98.5 3.276 99.0027 2.16667 100.008 1.3C101.013 0.433333 102.296 0 103.856 0Z" fill="#1D1D1D"/>
<path d="M105.941 18.38L109.269 16.3L110.829 9.80003H116.549V16.3H124.765V23.32H116.549V37.048C116.549 38.2614 116.809 39.1974 117.329 39.856C117.884 40.5147 118.681 40.844 119.721 40.844C120.83 40.844 121.836 40.636 122.737 40.22C123.673 39.804 124.436 39.232 125.025 38.504L126.117 39.024L124.505 45.42C123.084 46.4947 121.905 47.2054 120.969 47.552C120.068 47.9334 118.958 48.124 117.641 48.124C115.63 48.124 114.018 47.7254 112.805 46.928C111.592 46.096 110.69 44.7787 110.101 42.976C109.546 41.1387 109.269 38.6427 109.269 35.488V23.32H105.941V18.38Z" fill="#1D1D1D"/>
<path d="M141.426 48.072C139.103 48.072 136.867 47.656 134.718 46.824C132.603 45.9574 130.766 44.7267 129.206 43.132L128.114 35.8L128.842 35.592C130.783 37.256 132.742 38.5387 134.718 39.44C136.694 40.3067 138.601 40.74 140.438 40.74C142.622 40.74 144.303 40.4107 145.482 39.752C146.695 39.0587 147.302 38.088 147.302 36.84C147.302 35.6614 146.73 34.708 145.586 33.98C144.477 33.2174 142.466 32.4027 139.554 31.536C136.815 30.7387 134.666 29.8547 133.106 28.884C131.546 27.9134 130.419 26.7 129.726 25.244C129.033 23.788 128.686 21.8987 128.686 19.576C128.686 15.936 129.865 13.0934 132.222 11.048C134.614 9.00269 137.751 7.98002 141.634 7.98002C143.991 7.98002 146.262 8.34403 148.446 9.07203C150.63 9.80003 152.398 10.7707 153.75 11.984L152.606 19.004L151.826 19.212C151.098 18.068 149.833 17.132 148.03 16.404C146.262 15.676 144.355 15.312 142.31 15.312C140.438 15.312 138.999 15.6414 137.994 16.3C136.989 16.9587 136.486 17.9294 136.486 19.212C136.486 20.5294 136.971 21.552 137.942 22.28C138.947 22.9734 140.75 23.684 143.35 24.412C146.331 25.244 148.654 26.1454 150.318 27.116C151.982 28.052 153.195 29.2307 153.958 30.652C154.721 32.0734 155.102 33.8934 155.102 36.112C155.102 39.8907 153.854 42.8374 151.358 44.952C148.862 47.032 145.551 48.072 141.426 48.072Z" fill="#1D1D1D"/>
<path d="M157.863 38.816C157.863 36.84 158.331 35.0547 159.267 33.46C160.238 31.8307 161.503 30.548 163.063 29.612C164.658 28.676 166.374 28.208 168.211 28.208C171.401 28.208 173.879 28.676 175.647 29.612V26.856C175.647 25.5387 175.11 24.516 174.035 23.788C172.995 23.06 171.522 22.696 169.615 22.696C167.57 22.696 165.75 23.0254 164.155 23.684C162.595 24.3427 161.399 25.3307 160.567 26.648L159.995 26.544L160.931 18.848C162.11 17.808 163.566 17.0107 165.299 16.456C167.067 15.8667 168.853 15.572 170.655 15.572C174.399 15.572 177.381 16.456 179.599 18.224C181.818 19.992 182.927 22.4014 182.927 25.452V39.752L183.447 47.5H175.803L175.647 44.64C174.954 45.7494 173.862 46.6507 172.371 47.344C170.915 48.0027 169.303 48.332 167.535 48.332C164.589 48.332 162.231 47.4827 160.463 45.784C158.73 44.0854 157.863 41.7627 157.863 38.816ZM165.351 38.348C165.351 39.5267 165.646 40.4454 166.235 41.104C166.859 41.728 167.761 42.04 168.939 42.04C170.222 42.04 171.435 41.7974 172.579 41.312C173.758 40.792 174.781 40.064 175.647 39.128V35.592C173.706 34.656 171.522 34.188 169.095 34.188C167.813 34.188 166.859 34.5347 166.235 35.228C165.646 35.9214 165.351 36.9614 165.351 38.348Z" fill="#1D1D1D"/>
<path d="M187.516 18.38L190.844 16.3C190.844 12.3827 191.503 9.54002 192.82 7.77202C194.172 5.96936 196.304 5.06803 199.216 5.06803C201.123 5.06803 202.717 5.25869 204 5.64002C205.283 5.98669 206.323 6.55869 207.12 7.35603L206.288 12.556L205.404 13.076C204.953 12.66 204.433 12.3654 203.844 12.192C203.289 12.0187 202.457 11.932 201.348 11.932C199.199 11.932 198.124 13.128 198.124 15.52V16.3H206.34V23.32H198.124V39.7L198.644 47.5H190.324L190.844 39.7V23.32H187.516V18.38Z" fill="#1D1D1D"/>
<path d="M221.688 48.124C217.043 48.124 213.645 46.7547 211.496 44.016C209.347 41.2774 208.272 37.2214 208.272 31.848C208.272 26.6134 209.399 22.5747 211.652 19.732C213.94 16.8894 217.285 15.468 221.688 15.468C226.021 15.468 229.228 16.56 231.308 18.744C233.423 20.928 234.653 24.3774 235 29.092L233.596 34.552H215.864C216.003 36.2507 216.332 37.5507 216.852 38.452C217.372 39.3534 218.117 39.9774 219.088 40.324C220.093 40.6707 221.48 40.844 223.248 40.844C225.571 40.844 227.633 40.636 229.436 40.22C231.273 39.804 232.521 39.2667 233.18 38.608L234.064 39.076L232.452 45.42C231.135 46.4254 229.644 47.1187 227.98 47.5C226.316 47.916 224.219 48.124 221.688 48.124ZM227.616 29.092C227.616 26.908 227.148 25.296 226.212 24.256C225.276 23.1814 223.837 22.644 221.896 22.644C219.851 22.644 218.36 23.1294 217.424 24.1C216.523 25.036 215.985 26.7 215.812 29.092H227.616Z" fill="#1D1D1D"/>
</svg>
