<svg width="201" height="51" viewBox="0 0 201 51" fill="none" xmlns="http://www.w3.org/2000/svg">
<path d="M12.7198 7.25019C16.2977 7.25019 19.1215 8.27033 21.1914 10.3106C23.2908 12.3213 24.3405 15.2043 24.3405 18.9596C24.3405 21.4139 23.8526 23.5281 22.8768 25.3022C21.9306 27.0764 20.5704 28.4366 18.7963 29.3828C17.0517 30.2995 15.0114 30.7578 12.6754 30.7578H7.35297V33.8625L7.79651 40.5156H0.522461L0.966001 33.8625V13.6815L0.522461 7.25019H12.7198ZM10.8569 24.6369C12.6311 24.6369 14.0061 24.4743 14.9818 24.149C15.9576 23.7942 16.6525 23.2176 17.0665 22.4192C17.4804 21.5913 17.6874 20.4381 17.6874 18.9596C17.6874 17.5403 17.4804 16.4315 17.0665 15.6331C16.6525 14.8347 15.9576 14.2581 14.9818 13.9033C14.0061 13.5485 12.6607 13.371 10.9456 13.371H7.35297V24.6369H10.8569Z" fill="#FCFCFC"/>
<path d="M27.762 33.8625V11.4638L27.3185 5.0325H34.4151L33.9716 11.4638V33.8625L34.4151 40.5156H27.3185L27.762 33.8625Z" fill="#FCFCFC"/>
<path d="M37.8539 33.1085C37.8539 31.4231 38.2531 29.9003 39.0515 28.5401C39.8794 27.1503 40.9587 26.0563 42.2893 25.2579C43.6495 24.4595 45.1132 24.0603 46.6803 24.0603C49.4007 24.0603 51.5149 24.4595 53.023 25.2579V22.9071C53.023 21.7835 52.5646 20.9112 51.648 20.2902C50.7609 19.6693 49.5042 19.3588 47.8779 19.3588C46.1333 19.3588 44.5809 19.6397 43.2207 20.2015C41.8901 20.7634 40.87 21.6061 40.1603 22.7297L39.6724 22.641L40.4708 16.0766C41.4762 15.1895 42.7181 14.5095 44.1965 14.0363C45.7046 13.5337 47.2274 13.2823 48.765 13.2823C51.9585 13.2823 54.5014 14.0363 56.3939 15.5444C58.2863 17.0524 59.2325 19.1075 59.2325 21.7096V33.9069L59.676 40.5156H53.156L53.023 38.0762C52.4316 39.0224 51.5001 39.7912 50.2287 40.3826C48.9868 40.9444 47.6118 41.2253 46.1037 41.2253C43.5904 41.2253 41.5796 40.5009 40.0716 39.052C38.5931 37.6031 37.8539 35.6219 37.8539 33.1085ZM44.2409 32.7093C44.2409 33.7147 44.4922 34.4983 44.9949 35.0601C45.5271 35.5924 46.2959 35.8585 47.3013 35.8585C48.3954 35.8585 49.4303 35.6515 50.4061 35.2375C51.4114 34.794 52.2837 34.173 53.023 33.3747V30.3586C51.3671 29.5602 49.5042 29.161 47.4344 29.161C46.3403 29.161 45.5271 29.4567 44.9949 30.0481C44.4922 30.6395 44.2409 31.5266 44.2409 32.7093Z" fill="#FCFCFC"/>
<path d="M85.7225 13.9033L83.5048 20.3346L78.3154 40.5156C76.63 44.7736 74.2349 47.9671 71.1301 50.0961L65.852 45.0841L66.2068 44.6406C67.1235 44.404 68.1584 43.8422 69.3116 42.9551C70.4944 42.0976 71.2632 41.2844 71.618 40.5156H68.7793L63.6343 20.3346L61.3722 13.9033H69.1785L70.1543 20.3346L73.5252 35.9028L76.8961 20.3346L77.9163 13.9033H85.7225Z" fill="#FCFCFC"/>
<path d="M88.6619 0C90.0812 0 91.2048 0.41397 92.0328 1.24191C92.8607 2.04028 93.2747 3.10478 93.2747 4.43539C93.2747 6.09127 92.7572 7.68801 91.7223 9.22562C90.6874 10.7632 89.3863 11.8129 87.8191 12.3747L86.3111 10.7337L86.3998 10.5119C87.6121 9.83179 88.2331 8.92992 88.2627 7.80629C87.0503 7.74715 86.045 7.36275 85.2466 6.65309C84.4778 5.91386 84.0934 5.01199 84.0934 3.9475C84.0934 2.7943 84.5222 1.84808 85.3797 1.10885C86.2372 0.369616 87.3312 0 88.6619 0Z" fill="#FCFCFC"/>
<path d="M90.4402 15.6774L93.2788 13.9033L94.6094 8.35903H99.4884V13.9033H106.496V19.8911H99.4884V31.6005C99.4884 32.6354 99.7101 33.4338 100.154 33.9956C100.627 34.5574 101.307 34.8383 102.194 34.8383C103.14 34.8383 103.998 34.6609 104.766 34.3061C105.565 33.9513 106.215 33.4634 106.718 32.8424L107.649 33.2859L106.275 38.7415C105.062 39.6581 104.057 40.2643 103.258 40.56C102.49 40.8852 101.543 41.0479 100.42 41.0479C98.7048 41.0479 97.3298 40.7078 96.2949 40.0277C95.26 39.3181 94.4912 38.1944 93.9885 36.6568C93.5154 35.0897 93.2788 32.9607 93.2788 30.2699V19.8911H90.4402V15.6774Z" fill="#FCFCFC"/>
<path d="M120.708 41.0035C118.726 41.0035 116.819 40.6487 114.986 39.939C113.182 39.1998 111.615 38.1501 110.284 36.7899L109.353 30.536L109.974 30.3586C111.63 31.7779 113.3 32.872 114.986 33.6408C116.671 34.38 118.298 34.7496 119.865 34.7496C121.728 34.7496 123.162 34.4687 124.167 33.9069C125.202 33.3155 125.72 32.4876 125.72 31.4231C125.72 30.4177 125.232 29.6046 124.256 28.9836C123.31 28.3331 121.595 27.6382 119.111 26.899C116.775 26.2189 114.942 25.4649 113.611 24.6369C112.28 23.809 111.319 22.7741 110.728 21.5321C110.137 20.2902 109.841 18.6787 109.841 16.6976C109.841 13.5928 110.846 11.1681 112.857 9.42353C114.897 7.67894 117.573 6.80664 120.885 6.80664C122.896 6.80664 124.832 7.11712 126.695 7.73808C128.558 8.35903 130.066 9.18697 131.219 10.2219L130.244 16.2097L129.578 16.3871C128.957 15.4113 127.878 14.6129 126.341 13.992C124.832 13.371 123.206 13.0605 121.462 13.0605C119.865 13.0605 118.638 13.3415 117.78 13.9033C116.923 14.4651 116.494 15.293 116.494 16.3871C116.494 17.5107 116.908 18.383 117.736 19.004C118.593 19.5954 120.131 20.2015 122.349 20.8225C124.892 21.5322 126.873 22.301 128.292 23.1289C129.711 23.9273 130.746 24.9326 131.397 26.145C132.047 27.3573 132.373 28.9097 132.373 30.8021C132.373 34.0252 131.308 36.5386 129.179 38.3423C127.05 40.1164 124.226 41.0035 120.708 41.0035Z" fill="#FCFCFC"/>
<path d="M134.728 33.1085C134.728 31.4231 135.127 29.9003 135.925 28.5401C136.753 27.1503 137.833 26.0563 139.163 25.2579C140.523 24.4595 141.987 24.0603 143.554 24.0603C146.275 24.0603 148.389 24.4595 149.897 25.2579V22.9071C149.897 21.7835 149.439 20.9112 148.522 20.2902C147.635 19.6693 146.378 19.3588 144.752 19.3588C143.007 19.3588 141.455 19.6397 140.095 20.2015C138.764 20.7634 137.744 21.6061 137.034 22.7297L136.546 22.641L137.345 16.0766C138.35 15.1895 139.592 14.5094 141.071 14.0363C142.579 13.5337 144.101 13.2823 145.639 13.2823C148.832 13.2823 151.375 14.0363 153.268 15.5444C155.16 17.0524 156.107 19.1075 156.107 21.7096V33.9069L156.55 40.5156H150.03L149.897 38.0762C149.306 39.0224 148.374 39.7912 147.103 40.3826C145.861 40.9444 144.486 41.2253 142.978 41.2253C140.464 41.2253 138.454 40.5008 136.946 39.052C135.467 37.6031 134.728 35.6219 134.728 33.1085ZM141.115 32.7093C141.115 33.7147 141.366 34.4983 141.869 35.0601C142.401 35.5923 143.17 35.8585 144.175 35.8585C145.269 35.8585 146.304 35.6515 147.28 35.2375C148.285 34.794 149.158 34.173 149.897 33.3746V30.3586C148.241 29.5602 146.378 29.161 144.308 29.161C143.214 29.161 142.401 29.4567 141.869 30.0481C141.366 30.6395 141.115 31.5266 141.115 32.7093Z" fill="#FCFCFC"/>
<path d="M160.02 15.6774L162.859 13.9033C162.859 10.5619 163.421 8.13726 164.544 6.62923C165.698 5.09162 167.516 4.32282 170 4.32282C171.626 4.32282 172.987 4.48545 174.081 4.81072C175.175 5.10641 176.062 5.5943 176.742 6.2744L176.032 10.7098L175.278 11.1533C174.894 10.7985 174.45 10.5472 173.948 10.3993C173.474 10.2515 172.765 10.1775 171.819 10.1775C169.985 10.1775 169.069 11.1977 169.069 13.238V13.9033H176.077V19.8911H169.069V33.8625L169.512 40.5156H162.416L162.859 33.8625V19.8911H160.02V15.6774Z" fill="#FCFCFC"/>
<path d="M189.168 41.0479C185.206 41.0479 182.308 39.8799 180.474 37.5439C178.641 35.2079 177.725 31.7483 177.725 27.1651C177.725 22.7001 178.686 19.2553 180.608 16.8306C182.559 14.4059 185.413 13.1936 189.168 13.1936C192.864 13.1936 195.599 14.125 197.373 15.9879C199.177 17.8508 200.227 20.7929 200.522 24.8143L199.325 29.4715H184.2C184.318 30.9204 184.599 32.0292 185.043 32.798C185.486 33.5668 186.122 34.0991 186.95 34.3948C187.808 34.6905 188.99 34.8383 190.498 34.8383C192.48 34.8383 194.239 34.6609 195.777 34.3061C197.344 33.9513 198.408 33.4929 198.97 32.9311L199.724 33.3303L198.349 38.7415C197.225 39.599 195.954 40.1904 194.535 40.5156C193.115 40.8705 191.326 41.0479 189.168 41.0479ZM194.224 24.8143C194.224 22.9515 193.825 21.5765 193.027 20.6894C192.228 19.7728 191.001 19.3145 189.345 19.3145C187.601 19.3145 186.329 19.7284 185.531 20.5564C184.762 21.3547 184.304 22.7741 184.156 24.8143H194.224Z" fill="#FCFCFC"/>
</svg>
